<svg width="291" height="318" viewBox="0 0 291 318" fill="none" xmlns="http://www.w3.org/2000/svg">
<path d="M239.942 200.86V117.005C239.938 113.329 238.964 109.719 237.116 106.536C235.269 103.353 232.613 100.71 229.416 98.8719L155.734 56.9448C152.534 55.1049 148.904 54.1362 145.208 54.1362C141.513 54.1362 137.883 55.1049 134.682 56.9448L61.0003 98.8719C57.8032 100.71 55.1476 103.353 53.3001 106.536C51.4526 109.719 50.4781 113.329 50.4743 117.005V200.86C50.4781 204.536 51.4526 208.146 53.3001 211.329C55.1476 214.512 57.8032 217.155 61.0003 218.993L134.682 260.92C137.883 262.76 141.513 263.729 145.208 263.729C148.904 263.729 152.534 262.76 155.734 260.92L229.416 218.993C232.613 217.155 235.269 214.512 237.116 211.329C238.964 208.146 239.938 204.536 239.942 200.86Z" stroke="#768844" stroke-width="10" stroke-linecap="round" stroke-linejoin="round"/>
<path d="M56.7975 107.993L145.208 159.037L233.619 107.993" stroke="#768844" stroke-width="10" stroke-linecap="round" stroke-linejoin="round"/>
<path d="M145.208 261.236V158.932" stroke="#768844" stroke-width="10" stroke-linecap="round" stroke-linejoin="round"/>
<path d="M58.9012 248.682L59.3901 247.823L70.0198 253.871L69.5309 254.731L64.679 251.97L56.5355 266.281L55.6096 265.754L63.7531 251.443L58.9012 248.682ZM79.3631 279.27L87.9955 264.1L92.6696 266.76C93.6276 267.305 94.3455 267.962 94.8233 268.73C95.3011 269.499 95.5356 270.322 95.5266 271.2C95.5204 272.072 95.2672 272.948 94.767 273.827C94.2725 274.696 93.6517 275.356 92.9048 275.807C92.1607 276.253 91.3376 276.465 90.4355 276.442C89.5383 276.421 88.6107 276.139 87.6527 275.593L83.4675 273.212L83.9606 272.345L88.1236 274.714C88.9039 275.158 89.6534 275.392 90.3723 275.415C91.0912 275.439 91.7477 275.273 92.3419 274.918C92.9388 274.558 93.4411 274.02 93.8485 273.304C94.2588 272.583 94.4675 271.872 94.4747 271.17C94.4847 270.463 94.295 269.803 93.9055 269.189C93.5211 268.578 92.9387 268.05 92.1584 267.606L88.4325 265.486L80.289 279.797L79.3631 279.27ZM89.5043 275.941L89.3261 284.94L88.2594 284.333L88.4599 275.347L89.5043 275.941ZM106.379 294.636L105.399 294.083L119.469 281.984L120.537 282.588L117.435 300.883L116.455 300.33L119.365 283.502L119.291 283.46L106.379 294.636ZM110.998 289.699L118.3 293.824L117.814 294.685L110.512 290.56L110.998 289.699ZM146.505 295.562L145.419 295.672C145.246 295.096 144.977 294.55 144.61 294.033C144.243 293.511 143.791 293.054 143.254 292.663C142.722 292.266 142.121 291.97 141.45 291.776C140.779 291.582 140.054 291.524 139.274 291.604C138.132 291.72 137.112 292.132 136.213 292.84C135.319 293.543 134.644 294.511 134.187 295.745C133.736 296.979 133.597 298.447 133.77 300.148C133.945 301.861 134.377 303.276 135.068 304.394C135.764 305.511 136.621 306.323 137.638 306.831C138.66 307.332 139.741 307.524 140.883 307.408C141.663 307.329 142.363 307.129 142.981 306.809C143.599 306.483 144.129 306.075 144.57 305.585C145.016 305.088 145.366 304.547 145.621 303.962C145.875 303.376 146.029 302.784 146.082 302.184L147.168 302.074C147.115 302.787 146.944 303.498 146.657 304.207C146.375 304.916 145.974 305.573 145.453 306.18C144.937 306.781 144.306 307.282 143.558 307.684C142.816 308.079 141.959 308.327 140.987 308.426C139.54 308.573 138.228 308.335 137.051 307.713C135.873 307.085 134.902 306.133 134.138 304.857C133.38 303.58 132.91 302.046 132.727 300.254C132.545 298.463 132.696 296.865 133.182 295.462C133.673 294.059 134.432 292.933 135.459 292.086C136.486 291.233 137.723 290.733 139.17 290.586C140.143 290.487 141.032 290.559 141.839 290.803C142.652 291.04 143.371 291.401 143.997 291.885C144.628 292.363 145.153 292.921 145.572 293.558C145.997 294.194 146.308 294.862 146.505 295.562ZM166.627 304.551L157.994 289.38L158.92 288.853L163.932 297.661L164.035 297.602L167.024 284.242L168.253 283.542L165.753 294.467L176.827 298.746L175.671 299.404L165.539 295.471L164.741 299.083L167.552 304.024L166.627 304.551ZM194.326 288.789L185.694 273.618L194.138 268.813L194.627 269.672L187.109 273.951L190.687 280.239L197.754 276.218L198.243 277.078L191.176 281.099L194.763 287.402L202.46 283.023L202.949 283.882L194.326 288.789ZM221.211 273.49L212.579 258.32L217.253 255.66C218.211 255.115 219.143 254.833 220.047 254.815C220.952 254.797 221.78 255.016 222.529 255.472C223.276 255.923 223.9 256.588 224.4 257.467C224.895 258.336 225.145 259.207 225.151 260.079C225.155 260.947 224.916 261.763 224.435 262.526C223.96 263.287 223.243 263.94 222.285 264.486L218.1 266.867L217.606 266L221.769 263.632C222.55 263.188 223.133 262.663 223.521 262.056C223.908 261.45 224.101 260.801 224.099 260.109C224.095 259.412 223.889 258.706 223.482 257.99C223.071 257.269 222.566 256.726 221.966 256.361C221.364 255.991 220.699 255.817 219.973 255.838C219.251 255.857 218.5 256.088 217.72 256.532L213.994 258.652L222.137 272.963L221.211 273.49ZM223.529 263.071L231.174 267.821L230.108 268.428L222.485 263.666L223.529 263.071Z" fill="#768844"/>
<path d="M35.9946 64.3818L39.7929 71.0568L42.7966 69.3476C43.1234 69.1616 43.4811 68.9167 43.8696 68.6128C44.2612 68.2979 44.5972 67.918 44.8779 67.473C45.1615 67.017 45.3049 66.4844 45.3079 65.8752C45.318 65.262 45.0975 64.559 44.6464 63.7664C44.1954 62.9737 43.7097 62.4355 43.1892 62.1518C42.6718 61.8571 42.1526 61.7292 41.6316 61.7679C41.1135 61.7958 40.6251 61.908 40.1663 62.1046C39.7145 62.2973 39.3252 62.4866 38.9984 62.6726L35.9946 64.3818ZM43.2004 69.96L40.1549 71.693L42.6416 76.063C42.8671 76.4594 42.8721 76.7189 42.6566 76.8415C42.441 76.9642 42.2205 76.8273 41.995 76.431L35.3243 64.708C35.0987 64.3117 35.1841 64.0008 35.5805 63.7753L38.6781 62.0126C38.9979 61.8306 39.3644 61.6497 39.7775 61.4699C40.1906 61.29 40.6349 61.1569 41.1104 61.0704C41.5858 60.9839 42.0681 60.9903 42.5571 61.0894C43.0491 61.1776 43.5305 61.4007 44.0011 61.7588C44.4718 62.1169 44.9129 62.6575 45.3244 63.3806C45.7319 64.0968 45.9733 64.7556 46.0486 65.3571C46.1239 65.9585 46.0798 66.5037 45.9162 66.9926C45.7595 67.4775 45.5285 67.9127 45.2232 68.2982C44.9139 68.6767 44.5804 69.0045 44.2227 69.2817C43.861 69.5519 43.5202 69.778 43.2004 69.96ZM79.0155 56.4146C78.9459 56.4542 78.866 56.4674 78.7758 56.4544C78.6964 56.4443 78.627 56.3871 78.5677 56.2828C78.54 56.2342 78.5153 56.1746 78.4936 56.1041C78.4719 56.0336 78.4512 55.9487 78.4315 55.8495L75.9573 41.3106C75.922 41.119 75.9292 40.9538 75.9791 40.8149C76.0289 40.6761 76.1234 40.5671 76.2625 40.488L76.3146 40.4583C76.4676 40.3713 76.613 40.3438 76.7509 40.3758C76.8957 40.4038 77.0414 40.482 77.188 40.6102L88.4232 50.1639C88.5054 50.2276 88.5678 50.2887 88.6104 50.3473C88.6599 50.402 88.6985 50.4537 88.7262 50.5024C88.7895 50.6136 88.8017 50.7079 88.7629 50.7852C88.731 50.8586 88.6734 50.919 88.5899 50.9665C88.4787 51.0298 88.3735 51.039 88.2743 50.9942C88.1821 50.9454 88.0553 50.8519 87.8938 50.7137L84.3851 47.726L78.3984 51.1326L79.1746 55.6752C79.2109 55.8846 79.223 56.0434 79.2109 56.1515C79.1988 56.2597 79.1337 56.3474 79.0155 56.4146ZM78.2658 50.3658L83.7936 47.2204L76.8935 41.3301C76.8519 41.2894 76.8103 41.2486 76.7687 41.2078C76.7271 41.1671 76.6895 41.1333 76.6558 41.1064C76.6686 41.1451 76.6819 41.1928 76.6957 41.2494C76.7095 41.306 76.7233 41.3625 76.7371 41.4191L78.2658 50.3658ZM117.63 35.1765C117.383 35.2455 117.204 35.0797 117.092 34.679L113.352 21.3082C113.292 21.0925 113.284 20.9161 113.329 20.7789C113.373 20.6418 113.492 20.5463 113.685 20.4925L113.696 20.4892C113.85 20.4461 113.977 20.4523 114.075 20.5078C114.181 20.5612 114.306 20.6509 114.45 20.7769L125.979 31.483L122.408 18.7131C122.294 18.3047 122.36 18.0661 122.606 17.9971C122.722 17.9648 122.824 17.9901 122.914 18.073C123.002 18.1482 123.075 18.2937 123.136 18.5094L126.876 31.8803C126.934 32.0883 126.944 32.2598 126.907 32.3947C126.878 32.5275 126.763 32.622 126.563 32.678L126.54 32.6845C126.393 32.7254 126.267 32.7192 126.161 32.6659C126.057 32.6202 125.932 32.5305 125.786 32.3967L114.222 21.613L117.82 34.4754C117.932 34.876 117.869 35.1097 117.63 35.1765ZM173.014 17.4824C173.412 17.7049 173.552 17.921 173.435 18.1304C173.38 18.2282 173.283 18.2792 173.143 18.2835C173.014 18.2847 172.852 18.2306 172.657 18.1212L168.771 15.9482L162.158 27.7727C161.932 28.1776 161.707 28.3177 161.483 28.1927C161.267 28.0716 161.272 27.8086 161.498 27.4037L168.111 15.5792L164.236 13.412C164.04 13.3027 163.906 13.1908 163.832 13.0763C163.77 12.9588 163.766 12.8512 163.821 12.7535C163.875 12.6557 163.967 12.6062 164.096 12.605C164.232 12.6078 164.398 12.6638 164.593 12.7731L173.014 17.4824ZM203.316 35.3009L200.236 40.7139L204.23 42.987C205.12 43.4934 205.978 43.6595 206.805 43.4854C207.642 43.3082 208.313 42.7747 208.82 41.8847C209.326 40.9947 209.405 40.1694 209.055 39.409C208.705 38.6485 208.058 37.9993 207.112 37.4612L203.316 35.3009ZM195.958 46.7022L202.682 34.8853C202.908 34.489 203.219 34.4036 203.615 34.6291L207.474 36.825C208.016 37.1336 208.487 37.4795 208.886 37.8628C209.284 38.2461 209.588 38.6673 209.796 39.1263C210.004 39.5854 210.089 40.0754 210.05 40.5964C210.018 41.1214 209.834 41.6794 209.498 42.2704C208.9 43.3203 208.151 43.9573 207.251 44.1812C206.357 44.409 205.477 44.3456 204.612 43.991L203.958 51.2541C203.954 51.3256 203.942 51.3876 203.921 51.4403C203.904 51.4859 203.884 51.5296 203.86 51.5713C203.797 51.6826 203.72 51.7448 203.63 51.7578C203.536 51.7778 203.45 51.7661 203.374 51.7226C203.249 51.6513 203.176 51.5597 203.157 51.4476C203.145 51.3395 203.147 51.1837 203.161 50.9802L203.816 43.5935L199.874 41.3502L196.615 47.0761C196.386 47.4793 196.16 47.6177 195.937 47.4911C195.722 47.3684 195.729 47.1054 195.958 46.7022ZM236.949 70.9519C236.733 70.8292 236.734 70.5767 236.952 70.1942L239.599 65.5426C239.512 65.4197 239.473 65.2134 239.481 64.9236L239.713 55.8052C239.717 55.6692 239.751 55.5456 239.814 55.4344C239.862 55.3509 239.925 55.2952 240.006 55.2673C240.09 55.2324 240.177 55.2407 240.268 55.2921C240.379 55.3554 240.441 55.4412 240.453 55.5493C240.472 55.6614 240.478 55.8211 240.47 56.0285L240.229 65.211L247.979 60.3016C248.154 60.1891 248.294 60.1125 248.4 60.0716C248.506 60.0307 248.615 60.0419 248.726 60.1052C248.824 60.1606 248.881 60.23 248.898 60.3133C248.915 60.3966 248.902 60.4765 248.858 60.553C248.826 60.6086 248.788 60.6603 248.742 60.708C248.697 60.7557 248.641 60.7975 248.574 60.8334L240.848 65.7011C240.733 65.7737 240.628 65.829 240.532 65.8669C240.444 65.9087 240.352 65.9253 240.256 65.9165L237.609 70.5681C237.391 70.9506 237.171 71.0785 236.949 70.9519Z" fill="#768844"/>
</svg>
