<svg width="321" height="198" viewBox="0 0 321 198" fill="none" xmlns="http://www.w3.org/2000/svg">
<path d="M208.064 117.086V75.0857C208.062 73.2444 207.572 71.4359 206.643 69.8418C205.715 68.2476 204.38 66.9238 202.772 66.0032L165.731 45.0032C164.122 44.0816 162.297 43.5964 160.439 43.5964C158.581 43.5964 156.756 44.0816 155.147 45.0032L118.106 66.0032C116.498 66.9238 115.163 68.2476 114.235 69.8418C113.306 71.4359 112.816 73.2444 112.814 75.0857V117.086C112.816 118.927 113.306 120.735 114.235 122.33C115.163 123.924 116.498 125.248 118.106 126.168L155.147 147.168C156.756 148.09 158.581 148.575 160.439 148.575C162.297 148.575 164.122 148.09 165.731 147.168L202.772 126.168C204.38 125.248 205.715 123.924 206.643 122.33C207.572 120.735 208.062 118.927 208.064 117.086Z" stroke="#768844" stroke-width="6" stroke-linecap="round" stroke-linejoin="round"/>
<path d="M115.993 70.5718L160.439 96.1382L204.885 70.5718" stroke="#768844" stroke-width="6" stroke-linecap="round" stroke-linejoin="round"/>
<path d="M160.439 147.327V96.0857" stroke="#768844" stroke-width="6" stroke-linecap="round" stroke-linejoin="round"/>
<path d="M68.8308 171.514C69.2863 171.535 69.5087 171.665 69.4978 171.905C69.4927 172.017 69.4286 172.106 69.3055 172.172C69.1907 172.231 69.0214 172.256 68.7976 172.245L64.3502 172.044L63.7364 185.578C63.7154 186.041 63.577 186.267 63.3213 186.256C63.0736 186.245 62.9602 186.007 62.9812 185.544L63.595 172.01L59.1595 171.808C58.9358 171.798 58.7654 171.758 58.6484 171.689C58.5398 171.612 58.488 171.518 58.4931 171.406C58.4982 171.294 58.5581 171.209 58.6729 171.15C58.7957 171.091 58.9689 171.067 59.1927 171.077L68.8308 171.514ZM92.0691 173.301L91.7869 179.522L96.3782 179.731C97.4012 179.777 98.241 179.535 98.8977 179.004C99.5628 178.466 99.9185 177.685 99.9649 176.662C100.011 175.639 99.7059 174.868 99.0487 174.35C98.3915 173.832 97.5195 173.548 96.4326 173.499L92.0691 173.301ZM90.7001 186.801L91.316 173.219C91.3367 172.763 91.5748 172.546 92.0303 172.566L96.4658 172.767C97.0891 172.796 97.6654 172.89 98.1947 173.05C98.724 173.21 99.1857 173.447 99.5799 173.762C99.9741 174.076 100.272 174.474 100.475 174.955C100.685 175.437 100.775 176.018 100.744 176.697C100.689 177.904 100.312 178.812 99.6116 179.421C98.9193 180.03 98.1069 180.374 97.1744 180.451L99.8946 187.218C99.9237 187.283 99.941 187.344 99.9464 187.4C99.9522 187.448 99.9541 187.497 99.9519 187.545C99.9461 187.672 99.906 187.763 99.8315 187.815C99.7567 187.876 99.6753 187.904 99.5874 187.9C99.4435 187.894 99.3376 187.845 99.2697 187.754C99.2098 187.663 99.14 187.524 99.0604 187.336L96.2851 180.459L91.7538 180.254L91.4553 186.835C91.4343 187.298 91.2959 187.524 91.0402 187.513C90.7924 187.502 90.6791 187.264 90.7001 186.801ZM121.045 188.977C120.965 188.974 120.89 188.943 120.82 188.884C120.758 188.833 120.73 188.748 120.735 188.628C120.738 188.572 120.748 188.508 120.768 188.437C120.787 188.366 120.814 188.283 120.85 188.188L126.482 174.558C126.554 174.377 126.648 174.241 126.764 174.15C126.88 174.059 127.018 174.017 127.178 174.023L127.238 174.026C127.414 174.034 127.551 174.088 127.651 174.188C127.759 174.289 127.841 174.432 127.897 174.619L132.336 188.683C132.371 188.781 132.392 188.866 132.397 188.938C132.41 189.011 132.415 189.075 132.412 189.131C132.407 189.259 132.367 189.345 132.293 189.39C132.227 189.435 132.146 189.456 132.05 189.451C131.922 189.446 131.828 189.398 131.768 189.307C131.716 189.217 131.658 189.07 131.595 188.867L130.211 184.472L123.329 184.175L121.572 188.436C121.492 188.632 121.418 188.773 121.35 188.858C121.282 188.943 121.18 188.983 121.045 188.977ZM123.625 183.455L129.979 183.729L127.265 175.072C127.251 175.016 127.238 174.959 127.224 174.902C127.21 174.846 127.197 174.797 127.182 174.756C127.173 174.796 127.159 174.843 127.14 174.899C127.122 174.954 127.103 175.009 127.085 175.064L123.625 183.455ZM158.988 190.133C158.172 190.145 157.394 189.997 156.653 189.689C155.912 189.38 155.249 188.91 154.663 188.279C154.085 187.648 153.625 186.863 153.283 185.924C152.94 184.977 152.759 183.876 152.739 182.62C152.72 181.364 152.867 180.258 153.18 179.301C153.493 178.344 153.929 177.545 154.487 176.905C155.053 176.256 155.702 175.766 156.433 175.434C157.164 175.095 157.937 174.919 158.753 174.906C159.601 174.893 160.335 175.022 160.955 175.292C161.575 175.555 162.088 175.891 162.495 176.301C162.901 176.71 163.204 177.126 163.402 177.547C163.601 177.968 163.702 178.326 163.707 178.622C163.709 178.742 163.678 178.831 163.615 178.888C163.552 178.945 163.48 178.974 163.4 178.975C163.288 178.977 163.2 178.954 163.135 178.907C163.07 178.852 163.017 178.737 162.974 178.562C162.888 178.187 162.678 177.774 162.343 177.323C162.016 176.864 161.557 176.471 160.968 176.144C160.379 175.809 159.652 175.649 158.789 175.662C157.909 175.675 157.065 175.949 156.257 176.481C155.449 177.006 154.793 177.78 154.289 178.804C153.784 179.828 153.544 181.096 153.567 182.607C153.591 184.111 153.87 185.371 154.406 186.387C154.942 187.395 155.621 188.148 156.445 188.648C157.269 189.147 158.121 189.39 159.001 189.376C159.865 189.363 160.586 189.184 161.165 188.839C161.743 188.494 162.189 188.087 162.502 187.618C162.823 187.149 163.02 186.73 163.094 186.361C163.132 186.176 163.182 186.059 163.245 186.01C163.308 185.953 163.396 185.924 163.508 185.922C163.588 185.921 163.66 185.952 163.725 186.015C163.79 186.07 163.823 186.157 163.825 186.277C163.83 186.573 163.739 186.935 163.554 187.362C163.369 187.789 163.079 188.213 162.686 188.635C162.292 189.049 161.789 189.401 161.178 189.691C160.566 189.972 159.836 190.119 158.988 190.133ZM186.439 189.589C186.191 189.6 186.058 189.398 186.039 188.982L185.407 175.053C185.397 174.829 185.422 174.668 185.481 174.569C185.541 174.462 185.63 174.406 185.75 174.401C186.006 174.389 186.143 174.595 186.162 175.019L186.464 181.66L192.803 174.441C192.917 174.308 193.013 174.211 193.09 174.152C193.176 174.092 193.27 174.06 193.374 174.055C193.486 174.05 193.567 174.078 193.618 174.14C193.669 174.194 193.696 174.257 193.699 174.328C193.701 174.384 193.692 174.441 193.671 174.498C193.649 174.547 193.619 174.596 193.581 174.646L187.678 181.424C187.556 181.558 187.446 181.679 187.346 181.788C187.255 181.896 187.179 181.976 187.117 182.027C187.183 182.064 187.266 182.128 187.366 182.219C187.474 182.311 187.595 182.417 187.729 182.539L194.216 188.636C194.266 188.681 194.304 188.736 194.331 188.799C194.358 188.854 194.372 188.901 194.374 188.941C194.377 189.021 194.348 189.09 194.287 189.149C194.234 189.207 194.143 189.24 194.015 189.245C193.919 189.25 193.83 189.226 193.748 189.173C193.673 189.129 193.574 189.045 193.448 188.923L186.497 182.391L186.794 188.948C186.813 189.364 186.695 189.577 186.439 189.589ZM225.478 173.079C225.49 173.327 225.267 173.461 224.812 173.482L217.475 173.815L217.758 180.048L223.968 179.767C224.191 179.757 224.361 179.781 224.476 179.84C224.598 179.898 224.662 179.984 224.667 180.095C224.672 180.207 224.617 180.302 224.5 180.379C224.391 180.448 224.225 180.488 224.001 180.498L217.791 180.78L218.082 187.193L225.419 186.86C225.874 186.84 226.107 186.953 226.119 187.201C226.13 187.441 225.907 187.571 225.452 187.592L218.043 187.928C217.588 187.948 217.35 187.731 217.329 187.275L216.718 173.801C216.697 173.346 216.915 173.107 217.37 173.087L224.779 172.751C225.234 172.73 225.467 172.84 225.478 173.079ZM248.946 172.388L249.228 178.609L253.82 178.401C254.843 178.355 255.657 178.037 256.263 177.449C256.877 176.853 257.16 176.043 257.114 175.02C257.068 173.997 256.694 173.258 255.992 172.801C255.291 172.344 254.397 172.14 253.31 172.19L248.946 172.388ZM248.805 185.956L248.189 172.374C248.168 171.918 248.386 171.68 248.841 171.66L253.277 171.458C253.9 171.43 254.483 171.472 255.024 171.583C255.566 171.695 256.047 171.889 256.468 172.167C256.889 172.444 257.222 172.813 257.467 173.274C257.72 173.735 257.862 174.306 257.893 174.985C257.948 176.192 257.654 177.13 257.012 177.8C256.377 178.469 255.6 178.885 254.678 179.047L257.999 185.539C258.034 185.601 258.057 185.66 258.068 185.716C258.078 185.764 258.084 185.811 258.086 185.859C258.092 185.987 258.06 186.081 257.991 186.14C257.922 186.207 257.843 186.243 257.755 186.247C257.611 186.253 257.501 186.214 257.426 186.13C257.358 186.045 257.276 185.912 257.179 185.732L253.793 179.135L249.262 179.34L249.56 185.922C249.581 186.385 249.464 186.623 249.208 186.634C248.96 186.646 248.826 186.419 248.805 185.956Z" fill="#768844"/>
<path d="M50.742 8.60173L50.7979 16.2815L54.2538 16.2564C54.6297 16.2537 55.0615 16.2145 55.5489 16.139C56.0443 16.0554 56.5231 15.8879 56.9853 15.6365C57.4555 15.3771 57.8406 14.9823 58.1408 14.4521C58.4489 13.9219 58.5997 13.2007 58.593 12.2888C58.5864 11.3768 58.4253 10.67 58.1096 10.1682C57.8019 9.65845 57.4112 9.29328 56.9376 9.07272C56.472 8.8441 55.9909 8.70359 55.4945 8.65119C55.0061 8.59874 54.5739 8.57388 54.1979 8.57662L50.742 8.60173ZM54.3071 16.988L50.8032 17.0135L50.8397 22.0414C50.843 22.4974 50.7207 22.7263 50.4727 22.7281C50.2247 22.7299 50.099 22.5028 50.0957 22.0468L49.9977 8.55914C49.9944 8.10315 50.2207 7.8735 50.6767 7.87019L54.2406 7.84429C54.6086 7.84161 55.0168 7.86265 55.4651 7.90739C55.9135 7.95213 56.3662 8.05284 56.8233 8.20953C57.2805 8.36621 57.6983 8.60718 58.0766 8.93244C58.463 9.24964 58.7741 9.67939 59.01 10.2217C59.246 10.764 59.367 11.4511 59.373 12.2831C59.379 13.1071 59.268 13.7999 59.0401 14.3616C58.8122 14.9233 58.5075 15.3775 58.126 15.7243C57.7525 16.071 57.3384 16.338 56.8838 16.5253C56.4291 16.7046 55.978 16.8279 55.5304 16.8952C55.0829 16.9544 54.6751 16.9854 54.3071 16.988ZM92.1766 22.653C92.0966 22.6536 92.0204 22.6261 91.948 22.5707C91.8837 22.5231 91.8511 22.4394 91.8502 22.3194C91.8498 22.2634 91.8573 22.1993 91.8728 22.1272C91.8883 22.0551 91.9117 21.9709 91.943 21.8747L96.8821 7.97841C96.9448 7.79395 97.0317 7.65332 97.143 7.5565C97.2543 7.45969 97.39 7.41071 97.55 7.40954L97.61 7.40911C97.786 7.40783 97.9263 7.45481 98.031 7.55005C98.1437 7.64523 98.2327 7.78459 98.2981 7.96812L103.439 21.7911C103.479 21.8868 103.504 21.9707 103.512 22.0426C103.529 22.1145 103.537 22.1784 103.538 22.2344C103.539 22.3624 103.503 22.4507 103.432 22.4992C103.368 22.5477 103.288 22.5722 103.192 22.5729C103.064 22.5739 102.968 22.5306 102.903 22.443C102.847 22.3554 102.782 22.2119 102.708 22.0124L101.105 17.692L94.217 17.742L92.6765 22.0853C92.606 22.2859 92.539 22.4304 92.4757 22.5188C92.4123 22.6073 92.3126 22.652 92.1766 22.653ZM94.4757 17.0081L100.835 16.9619L97.6896 8.45256C97.6732 8.39667 97.6568 8.34079 97.6404 8.28491C97.6239 8.22903 97.6076 8.18115 97.5913 8.14126C97.5836 8.18132 97.5719 8.22941 97.5564 8.28552C97.5408 8.34163 97.5252 8.39775 97.5096 8.45386L94.4757 17.0081ZM136.374 22.3467C136.118 22.3471 135.989 22.1393 135.989 21.7233L135.965 7.83935C135.965 7.61535 136.005 7.44328 136.084 7.32315C136.164 7.20301 136.304 7.14278 136.504 7.14244L136.516 7.14242C136.676 7.14215 136.796 7.18195 136.876 7.26182C136.964 7.34167 137.061 7.46151 137.165 7.62133L145.407 21.0235L145.385 7.76352C145.384 7.33952 145.512 7.1273 145.768 7.12687C145.888 7.12667 145.98 7.17852 146.044 7.28241C146.108 7.3783 146.141 7.53825 146.141 7.76225L146.164 21.6462C146.165 21.8622 146.129 22.0303 146.057 22.1504C145.994 22.2705 145.858 22.3307 145.65 22.3311L145.626 22.3311C145.474 22.3314 145.354 22.2916 145.265 22.2117C145.177 22.1399 145.081 22.02 144.977 21.8522L136.722 8.36608L136.745 21.7221C136.745 22.1381 136.622 22.3463 136.374 22.3467ZM189.488 7.28362C189.944 7.28693 190.171 7.40859 190.169 7.64858C190.168 7.76058 190.108 7.85214 189.987 7.92327C189.875 7.98645 189.706 8.01723 189.482 8.0156L185.031 7.98325L184.932 21.5309C184.929 21.9949 184.799 22.2259 184.543 22.2241C184.295 22.2223 184.173 21.9894 184.176 21.5254L184.275 7.97775L179.835 7.94549C179.611 7.94386 179.439 7.91061 179.319 7.84574C179.208 7.77293 179.153 7.68052 179.153 7.56853C179.154 7.45653 179.211 7.36894 179.323 7.30576C179.444 7.24263 179.616 7.21188 179.84 7.21351L189.488 7.28362ZM224.537 8.27035L224.492 14.4982L229.087 14.5316C230.111 14.539 230.941 14.2651 231.577 13.7097C232.222 13.1463 232.547 12.3527 232.555 11.3287C232.562 10.3047 232.228 9.54627 231.551 9.05334C230.875 8.56042 229.993 8.31 228.905 8.30209L224.537 8.27035ZM223.682 21.8125L223.781 8.21686C223.784 7.76087 224.014 7.53453 224.47 7.53785L228.91 7.57011C229.534 7.57465 230.113 7.64686 230.648 7.78675C231.183 7.92664 231.654 8.14607 232.06 8.44502C232.466 8.74398 232.779 9.13027 232.999 9.60388C233.228 10.0776 233.34 10.6544 233.335 11.3344C233.326 12.5423 232.983 13.4639 232.307 14.099C231.638 14.7341 230.839 15.1083 229.91 15.2216L232.886 21.8794C232.918 21.9436 232.937 22.0038 232.945 22.0598C232.952 22.1079 232.956 22.1559 232.956 22.2039C232.955 22.3319 232.918 22.4236 232.846 22.4791C232.773 22.5426 232.693 22.574 232.605 22.5734C232.461 22.5723 232.353 22.5275 232.282 22.439C232.219 22.3505 232.144 22.214 232.057 22.0294L229.022 15.2631L224.486 15.2302L224.438 21.818C224.435 22.282 224.305 22.513 224.049 22.5112C223.801 22.5094 223.679 22.2765 223.682 21.8125ZM271.295 22.9625C271.047 22.9607 270.924 22.7398 270.927 22.2998L270.966 16.948C270.831 16.883 270.696 16.722 270.562 16.465L266.312 8.39394C266.249 8.27348 266.218 8.14925 266.219 8.02125C266.22 7.92525 266.248 7.84546 266.305 7.78187C266.361 7.71028 266.442 7.67486 266.546 7.67562C266.674 7.67655 266.769 7.72124 266.833 7.8097C266.904 7.89823 266.987 8.03483 267.082 8.21953L271.355 16.3508L275.721 8.28231C275.819 8.09902 275.904 7.96363 275.976 7.87616C276.049 7.78868 276.149 7.74541 276.277 7.74634C276.389 7.74715 276.473 7.77976 276.529 7.84417C276.584 7.90857 276.612 7.98477 276.611 8.07277C276.611 8.13677 276.602 8.20071 276.586 8.26459C276.569 8.32847 276.541 8.39227 276.5 8.45598L272.134 16.4765C272.069 16.596 272.004 16.6955 271.94 16.7751C271.883 16.8546 271.811 16.9141 271.722 16.9535L271.683 22.3053C271.68 22.7453 271.551 22.9644 271.295 22.9625Z" fill="#768844"/>
</svg>
